# Blender v2.81 (sub 16) OBJ File: ''
# www.blender.org
mtllib circleposter.mtl
o Cylinder
v 0.000000 2.000000 -0.050000
v 0.000000 2.000000 0.050000
v 0.390181 1.961571 -0.050000
v 0.390181 1.961571 0.050000
v 0.765367 1.847759 -0.050000
v 0.765367 1.847759 0.050000
v 1.111140 1.662939 -0.050000
v 1.111140 1.662939 0.050000
v 1.414214 1.414214 -0.050000
v 1.414214 1.414214 0.050000
v 1.662939 1.111140 -0.050000
v 1.662939 1.111140 0.050000
v 1.847759 0.765367 -0.050000
v 1.847759 0.765367 0.050000
v 1.961571 0.390181 -0.050000
v 1.961571 0.390181 0.050000
v 2.000000 0.000000 -0.050000
v 2.000000 0.000000 0.050000
v 1.961571 -0.390180 -0.050000
v 1.961571 -0.390180 0.050000
v 1.847759 -0.765367 -0.050000
v 1.847759 -0.765367 0.050000
v 1.662939 -1.111140 -0.050000
v 1.662939 -1.111140 0.050000
v 1.414214 -1.414214 -0.050000
v 1.414214 -1.414214 0.050000
v 1.111140 -1.662939 -0.050000
v 1.111140 -1.662939 0.050000
v 0.765367 -1.847759 -0.050000
v 0.765367 -1.847759 0.050000
v 0.390180 -1.961571 -0.050000
v 0.390180 -1.961571 0.050000
v -0.000001 -2.000000 -0.050000
v -0.000001 -2.000000 0.050000
v -0.390181 -1.961570 -0.050000
v -0.390181 -1.961570 0.050000
v -0.765368 -1.847759 -0.050000
v -0.765368 -1.847759 0.050000
v -1.111141 -1.662939 -0.050000
v -1.111141 -1.662939 0.050000
v -1.414214 -1.414213 -0.050000
v -1.414214 -1.414213 0.050000
v -1.662940 -1.111139 -0.050000
v -1.662940 -1.111139 0.050000
v -1.847760 -0.765365 -0.050000
v -1.847760 -0.765365 0.050000
v -1.961571 -0.390179 -0.050000
v -1.961571 -0.390179 0.050000
v -2.000000 0.000002 -0.050000
v -2.000000 0.000002 0.050000
v -1.961570 0.390183 -0.050000
v -1.961570 0.390183 0.050000
v -1.847758 0.765369 -0.050000
v -1.847758 0.765369 0.050000
v -1.662938 1.111143 -0.050000
v -1.662938 1.111143 0.050000
v -1.414212 1.414215 -0.050000
v -1.414212 1.414215 0.050000
v -1.111138 1.662941 -0.050000
v -1.111138 1.662941 0.050000
v -0.765364 1.847760 -0.050000
v -0.765364 1.847760 0.050000
v -0.390178 1.961571 -0.050000
v -0.390178 1.961571 0.050000
vt 0.160444 0.982280
vt 0.193905 0.944605
vt 0.198028 0.949303
vt 0.156322 0.977582
vt 0.189783 0.939907
vt 0.152200 0.972884
vt 0.185661 0.935209
vt 0.148078 0.968186
vt 0.181539 0.930511
vt 0.143956 0.963488
vt 0.177417 0.925813
vt 0.139834 0.958791
vt 0.173295 0.921115
vt 0.135711 0.954093
vt 0.169172 0.916417
vt 0.131589 0.949395
vt 0.165050 0.911720
vt 0.127467 0.944697
vt 0.160928 0.907022
vt 0.123345 0.939999
vt 0.156806 0.902324
vt 0.119223 0.935301
vt 0.152684 0.897626
vt 0.115101 0.930603
vt 0.148562 0.892928
vt 0.110978 0.925905
vt 0.144439 0.888230
vt 0.106856 0.921207
vt 0.140317 0.883532
vt 0.102734 0.916509
vt 0.136195 0.878834
vt 0.098612 0.911812
vt 0.132073 0.874136
vt 0.094490 0.907114
vt 0.127951 0.869438
vt 0.090368 0.902416
vt 0.123829 0.864741
vt 0.086245 0.897718
vt 0.119706 0.860043
vt 0.082123 0.893020
vt 0.115584 0.855345
vt 0.078001 0.888322
vt 0.111462 0.850647
vt 0.073879 0.883624
vt 0.107340 0.845949
vt 0.069757 0.878926
vt 0.103218 0.841251
vt 0.065635 0.874228
vt 0.099096 0.836553
vt 0.061512 0.869530
vt 0.094973 0.831855
vt 0.057390 0.864833
vt 0.090851 0.827157
vt 0.053268 0.860135
vt 0.086729 0.822459
vt 0.049146 0.855437
vt 0.082607 0.817762
vt 0.045024 0.850739
vt 0.078485 0.813064
vt 0.040902 0.846041
vt 0.074363 0.808366
vt 0.039021 0.688991
vt 0.309056 0.037068
vt 0.960979 0.307103
vt 0.036779 0.841343
vt 0.070240 0.803668
vt 0.032657 0.836645
vt 0.066118 0.798970
vt 0.984679 0.105843
vt 0.928109 0.021180
vt 0.843446 0.077750
vt 0.690944 0.959026
vt 0.597342 0.987419
vt 0.500000 0.997007
vt 0.402658 0.987420
vt 0.309057 0.959026
vt 0.222793 0.912917
vt 0.147182 0.850865
vt 0.085130 0.775254
vt 0.010627 0.595390
vt 0.001040 0.498047
vt 0.010627 0.400705
vt 0.039021 0.307103
vt 0.085130 0.220840
vt 0.147182 0.145229
vt 0.222792 0.083177
vt 0.402657 0.008674
vt 0.500000 -0.000913
vt 0.597342 0.008674
vt 0.690944 0.037068
vt 0.777207 0.083177
vt 0.852818 0.145229
vt 0.914870 0.220840
vt 0.989372 0.400705
vt 0.998960 0.498047
vt 0.989372 0.595389
vt 0.960979 0.688990
vt 0.914870 0.775254
vt 0.852818 0.850865
vt 0.777207 0.912917
vt 0.028535 0.831947
vt 0.900016 0.162413
vt 0.914062 0.163797
vt 0.928109 0.162413
vt 0.941616 0.158316
vt 0.954064 0.151663
vt 0.964974 0.142709
vt 0.973928 0.131798
vt 0.980582 0.119350
vt 0.986063 0.091797
vt 0.984679 0.077750
vt 0.980582 0.064244
vt 0.973928 0.051796
vt 0.964974 0.040885
vt 0.954064 0.031931
vt 0.941616 0.025278
vt 0.914062 0.019797
vt 0.900016 0.021180
vt 0.886509 0.025278
vt 0.874061 0.031931
vt 0.863151 0.040885
vt 0.854197 0.051796
vt 0.847543 0.064244
vt 0.842062 0.091797
vt 0.843446 0.105843
vt 0.847543 0.119350
vt 0.854197 0.131798
vt 0.863151 0.142709
vt 0.874062 0.151663
vt 0.886509 0.158316
vn 0.0980 0.9952 0.0000
vn 0.2903 0.9569 0.0000
vn 0.4714 0.8819 0.0000
vn 0.6344 0.7730 0.0000
vn 0.7730 0.6344 0.0000
vn 0.8819 0.4714 0.0000
vn 0.9569 0.2903 0.0000
vn 0.9952 0.0980 0.0000
vn 0.9952 -0.0980 0.0000
vn 0.9569 -0.2903 0.0000
vn 0.8819 -0.4714 0.0000
vn 0.7730 -0.6344 0.0000
vn 0.6344 -0.7730 0.0000
vn 0.4714 -0.8819 0.0000
vn 0.2903 -0.9569 0.0000
vn 0.0980 -0.9952 0.0000
vn -0.0980 -0.9952 0.0000
vn -0.2903 -0.9569 0.0000
vn -0.4714 -0.8819 0.0000
vn -0.6344 -0.7730 0.0000
vn -0.7730 -0.6344 0.0000
vn -0.8819 -0.4714 0.0000
vn -0.9569 -0.2903 0.0000
vn -0.9952 -0.0980 0.0000
vn -0.9952 0.0980 0.0000
vn -0.9569 0.2903 0.0000
vn -0.8819 0.4714 0.0000
vn -0.7730 0.6344 0.0000
vn -0.6344 0.7730 0.0000
vn -0.4714 0.8819 0.0000
vn 0.0000 -0.0000 1.0000
vn -0.2903 0.9569 0.0000
vn -0.0980 0.9952 0.0000
vn 0.0000 0.0000 -1.0000
usemtl None
s off
f 2/1/1 3/2/1 1/3/1
f 4/4/2 5/5/2 3/2/2
f 6/6/3 7/7/3 5/5/3
f 8/8/4 9/9/4 7/7/4
f 10/10/5 11/11/5 9/9/5
f 12/12/6 13/13/6 11/11/6
f 14/14/7 15/15/7 13/13/7
f 16/16/8 17/17/8 15/15/8
f 18/18/9 19/19/9 17/17/9
f 20/20/10 21/21/10 19/19/10
f 22/22/11 23/23/11 21/21/11
f 24/24/12 25/25/12 23/23/12
f 26/26/13 27/27/13 25/25/13
f 28/28/14 29/29/14 27/27/14
f 30/30/15 31/31/15 29/29/15
f 32/32/16 33/33/16 31/31/16
f 34/34/17 35/35/17 33/33/17
f 36/36/18 37/37/18 35/35/18
f 38/38/19 39/39/19 37/37/19
f 40/40/20 41/41/20 39/39/20
f 42/42/21 43/43/21 41/41/21
f 44/44/22 45/45/22 43/43/22
f 46/46/23 47/47/23 45/45/23
f 48/48/24 49/49/24 47/47/24
f 50/50/25 51/51/25 49/49/25
f 52/52/26 53/53/26 51/51/26
f 54/54/27 55/55/27 53/53/27
f 56/56/28 57/57/28 55/55/28
f 58/58/29 59/59/29 57/57/29
f 60/60/30 61/61/30 59/59/30
f 54/62/31 38/63/31 22/64/31
f 62/65/32 63/66/32 61/61/32
f 64/67/33 1/68/33 63/66/33
f 15/69/34 31/70/34 47/71/34
f 2/1/1 4/4/1 3/2/1
f 4/4/2 6/6/2 5/5/2
f 6/6/3 8/8/3 7/7/3
f 8/8/4 10/10/4 9/9/4
f 10/10/5 12/12/5 11/11/5
f 12/12/6 14/14/6 13/13/6
f 14/14/7 16/16/7 15/15/7
f 16/16/8 18/18/8 17/17/8
f 18/18/9 20/20/9 19/19/9
f 20/20/10 22/22/10 21/21/10
f 22/22/11 24/24/11 23/23/11
f 24/24/12 26/26/12 25/25/12
f 26/26/13 28/28/13 27/27/13
f 28/28/14 30/30/14 29/29/14
f 30/30/15 32/32/15 31/31/15
f 32/32/16 34/34/16 33/33/16
f 34/34/17 36/36/17 35/35/17
f 36/36/18 38/38/18 37/37/18
f 38/38/19 40/40/19 39/39/19
f 40/40/20 42/42/20 41/41/20
f 42/42/21 44/44/21 43/43/21
f 44/44/22 46/46/22 45/45/22
f 46/46/23 48/48/23 47/47/23
f 48/48/24 50/50/24 49/49/24
f 50/50/25 52/52/25 51/51/25
f 52/52/26 54/54/26 53/53/26
f 54/54/27 56/56/27 55/55/27
f 56/56/28 58/58/28 57/57/28
f 58/58/29 60/60/29 59/59/29
f 60/60/30 62/65/30 61/61/30
f 6/72/31 4/73/31 2/74/31
f 2/74/31 64/75/31 6/72/31
f 64/75/31 62/76/31 6/72/31
f 62/76/31 60/77/31 58/78/31
f 58/78/31 56/79/31 54/62/31
f 54/62/31 52/80/31 50/81/31
f 50/81/31 48/82/31 54/62/31
f 48/82/31 46/83/31 54/62/31
f 46/83/31 44/84/31 38/63/31
f 44/84/31 42/85/31 38/63/31
f 42/85/31 40/86/31 38/63/31
f 38/63/31 36/87/31 34/88/31
f 34/88/31 32/89/31 30/90/31
f 30/90/31 28/91/31 26/92/31
f 26/92/31 24/93/31 22/64/31
f 22/64/31 20/94/31 18/95/31
f 18/95/31 16/96/31 22/64/31
f 16/96/31 14/97/31 22/64/31
f 14/97/31 12/98/31 10/99/31
f 10/99/31 8/100/31 6/72/31
f 62/76/31 58/78/31 6/72/31
f 58/78/31 54/62/31 6/72/31
f 38/63/31 34/88/31 22/64/31
f 34/88/31 30/90/31 22/64/31
f 30/90/31 26/92/31 22/64/31
f 14/97/31 10/99/31 22/64/31
f 10/99/31 6/72/31 22/64/31
f 54/62/31 46/83/31 38/63/31
f 6/72/31 54/62/31 22/64/31
f 62/65/32 64/67/32 63/66/32
f 64/67/33 2/101/33 1/68/33
f 63/102/34 1/103/34 3/104/34
f 3/104/34 5/105/34 7/106/34
f 7/106/34 9/107/34 11/108/34
f 11/108/34 13/109/34 7/106/34
f 13/109/34 15/69/34 7/106/34
f 15/69/34 17/110/34 19/111/34
f 19/111/34 21/112/34 15/69/34
f 21/112/34 23/113/34 15/69/34
f 23/113/34 25/114/34 31/70/34
f 25/114/34 27/115/34 31/70/34
f 27/115/34 29/116/34 31/70/34
f 31/70/34 33/117/34 35/118/34
f 35/118/34 37/119/34 39/120/34
f 39/120/34 41/121/34 43/122/34
f 43/122/34 45/123/34 47/71/34
f 47/71/34 49/124/34 51/125/34
f 51/125/34 53/126/34 55/127/34
f 55/127/34 57/128/34 63/102/34
f 57/128/34 59/129/34 63/102/34
f 59/129/34 61/130/34 63/102/34
f 63/102/34 3/104/34 7/106/34
f 31/70/34 35/118/34 47/71/34
f 35/118/34 39/120/34 47/71/34
f 39/120/34 43/122/34 47/71/34
f 47/71/34 51/125/34 63/102/34
f 51/125/34 55/127/34 63/102/34
f 63/102/34 7/106/34 15/69/34
f 15/69/34 23/113/34 31/70/34
f 63/102/34 15/69/34 47/71/34
