# Blender v2.81 (sub 16) OBJ File: ''
# www.blender.org
mtllib light.mtl
o Cone
v 0.000000 -2.843548 -0.000000
v 0.000000 -4.780869 -2.203794
v -0.843352 -4.780869 -2.036041
v -1.558315 -4.780869 -1.558320
v 0.843355 -4.780869 -2.036040
v 2.036039 -4.780869 -0.843356
v 1.558317 -4.780869 -1.558318
v 2.203793 -4.780869 -0.000001
v 2.036039 -4.780869 0.843354
v 1.558317 -4.780869 1.558316
v -0.000001 -4.780869 2.203792
v 0.843355 -4.780869 2.036038
v -0.843356 -4.780869 2.036038
v -1.558318 -4.780869 1.558315
v -2.036040 -4.780869 0.843352
v -2.203793 -4.780869 -0.000003
v -2.036038 -4.780869 -0.843358
v 0.000000 -5.145714 -0.156771
v 0.000000 5.145714 -0.156769
v 0.030584 5.145714 -0.153756
v 0.030584 -5.145714 -0.153758
v 0.059993 5.145714 -0.144835
v 0.059993 -5.145714 -0.144837
v 0.087096 5.145714 -0.130348
v 0.087096 -5.145714 -0.130350
v 0.110853 5.145714 -0.110852
v 0.110853 -5.145714 -0.110854
v 0.130349 5.145714 -0.087095
v 0.130349 -5.145714 -0.087097
v 0.144836 5.145714 -0.059992
v 0.144836 -5.145714 -0.059994
v 0.153757 5.145714 -0.030583
v 0.153757 -5.145714 -0.030585
v 0.156770 5.145714 0.000001
v 0.156770 -5.145714 -0.000001
v 0.153757 5.145714 0.030585
v 0.153757 -5.145714 0.030583
v 0.144836 5.145714 0.059994
v 0.144836 -5.145714 0.059992
v 0.130349 5.145714 0.087097
v 0.130349 -5.145714 0.087095
v 0.110853 5.145714 0.110854
v 0.110853 -5.145714 0.110852
v 0.087096 5.145714 0.130350
v 0.087096 -5.145714 0.130348
v 0.059993 5.145714 0.144837
v 0.059993 -5.145714 0.144835
v 0.030584 5.145714 0.153758
v 0.030584 -5.145714 0.153756
v 0.000000 5.145714 0.156771
v 0.000000 -5.145714 0.156769
v -0.030584 5.145714 0.153758
v -0.030584 -5.145714 0.153756
v -0.059993 5.145714 0.144837
v -0.059993 -5.145714 0.144835
v -0.087097 5.145714 0.130350
v -0.087097 -5.145714 0.130348
v -0.110853 5.145714 0.110854
v -0.110853 -5.145714 0.110852
v -0.130349 5.145714 0.087097
v -0.130349 -5.145714 0.087095
v -0.144836 5.145714 0.059994
v -0.144836 -5.145714 0.059992
v -0.153757 5.145714 0.030585
v -0.153757 -5.145714 0.030583
v -0.156770 5.145714 0.000001
v -0.156770 -5.145714 -0.000001
v -0.153757 5.145714 -0.030583
v -0.153757 -5.145714 -0.030585
v -0.144836 5.145714 -0.059992
v -0.144836 -5.145714 -0.059994
v -0.130349 5.145714 -0.087096
v -0.130349 -5.145714 -0.087098
v -0.110853 5.145714 -0.110852
v -0.110853 -5.145714 -0.110854
v -0.087096 5.145714 -0.130348
v -0.087096 -5.145714 -0.130350
v -0.059993 5.145714 -0.144835
v -0.059993 -5.145714 -0.144837
v -0.030584 5.145714 -0.153756
v -0.030584 -5.145714 -0.153758
vt 0.817267 0.102009
vt 0.553534 0.265153
vt 0.492092 0.208171
vt 0.461933 0.143360
vt 0.636907 0.305630
vt 0.817267 0.315870
vt 0.729517 0.323439
vt 0.545488 0.405276
vt 0.545488 0.620039
vt 0.414141 0.591794
vt 0.390867 0.250834
vt 0.303117 0.029404
vt 0.390867 0.036973
vt 0.210507 0.047213
vt 0.065691 0.144671
vt 0.127134 0.087690
vt 0.035533 0.209483
vt 0.041251 0.272258
vt 0.081975 0.323439
vt 0.387259 0.404319
vt 0.387259 0.609516
vt 0.249788 0.599534
vt 0.467651 0.080585
vt 0.508374 0.029404
vt 0.080886 0.684649
vt 0.586228 0.677335
vt 0.586802 0.684648
vt 0.946310 0.893110
vt 0.112976 0.897357
vt 0.112976 0.893111
vt 0.946310 0.897356
vt 0.112976 0.902761
vt 0.946310 0.902760
vt 0.112976 0.909115
vt 0.946310 0.909114
vt 0.112976 0.916176
vt 0.946310 0.916175
vt 0.112976 0.923671
vt 0.946310 0.923671
vt 0.112976 0.931314
vt 0.946310 0.931313
vt 0.112976 0.938810
vt 0.946310 0.938809
vt 0.112976 0.945870
vt 0.946310 0.945869
vt 0.112976 0.952225
vt 0.946310 0.952224
vt 0.112976 0.957629
vt 0.946310 0.957628
vt 0.112976 0.961875
vt 0.589912 0.734996
vt 0.083070 0.724662
vt 0.084026 0.717954
vt 0.588956 0.741705
vt 0.082470 0.731956
vt 0.588356 0.748998
vt 0.082249 0.739554
vt 0.588135 0.756597
vt 0.082416 0.747166
vt 0.588302 0.764209
vt 0.082964 0.754498
vt 0.588850 0.771541
vt 0.083872 0.761269
vt 0.112977 0.879357
vt 0.946310 0.875111
vt 0.946310 0.879357
vt 0.112977 0.875111
vt 0.946310 0.869707
vt 0.112977 0.869707
vt 0.946310 0.863352
vt 0.112977 0.863353
vt 0.946310 0.856292
vt 0.112977 0.856292
vt 0.946310 0.848796
vt 0.112977 0.848796
vt 0.946310 0.841154
vt 0.112977 0.841154
vt 0.946310 0.833658
vt 0.112977 0.833658
vt 0.946310 0.826597
vt 0.112977 0.826598
vt 0.946310 0.820243
vt 0.112977 0.820243
vt 0.946310 0.814839
vt 0.112977 0.814839
vt 0.946310 0.810593
vt 0.080312 0.707173
vt 0.586802 0.699860
vt 0.586228 0.707173
vt 0.592734 0.724335
vt 0.600326 0.718769
vt 0.606686 0.735562
vt 0.080886 0.699860
vt 0.586996 0.692254
vt 0.081080 0.692254
vt 0.564636 0.398716
vt 0.596241 0.387715
vt 0.613134 0.408297
vt 0.080312 0.677335
vt 0.946310 0.961874
vt 0.589758 0.778312
vt 0.112977 0.810593
vt 0.607594 0.742333
vt 0.608142 0.749665
vt 0.608308 0.757277
vt 0.608087 0.764875
vt 0.607487 0.772169
vt 0.603710 0.789539
vt 0.606531 0.778877
vt 0.605255 0.784742
vt 0.601953 0.793082
vt 0.596117 0.795104
vt 0.600053 0.795237
vt 0.598082 0.795920
vt 0.594233 0.792822
vt 0.592502 0.789161
vt 0.590991 0.784262
vt 0.591188 0.729131
vt 0.594490 0.720791
vt 0.596390 0.718636
vt 0.598361 0.717954
vt 0.602210 0.721051
vt 0.603941 0.724712
vt 0.605452 0.729612
vt 0.611233 0.411286
vt 0.608473 0.413976
vt 0.604961 0.416263
vt 0.600830 0.418061
vt 0.596241 0.419299
vt 0.591368 0.419930
vt 0.586401 0.419930
vt 0.581529 0.419299
vt 0.576939 0.418061
vt 0.572809 0.416263
vt 0.569296 0.413976
vt 0.566537 0.411286
vt 0.564636 0.408297
vt 0.563666 0.405124
vt 0.563666 0.401889
vt 0.566537 0.395727
vt 0.569296 0.393038
vt 0.572809 0.390750
vt 0.576940 0.388953
vt 0.581529 0.387715
vt 0.586401 0.387084
vt 0.591369 0.387084
vt 0.600830 0.388953
vt 0.604961 0.390750
vt 0.608473 0.393038
vt 0.611233 0.395728
vt 0.613134 0.398716
vt 0.614103 0.401889
vt 0.614103 0.405124
vn -0.1302 0.7447 -0.6546
vn -0.3708 0.7447 -0.5550
vn 0.1302 0.7447 -0.6546
vn 0.5550 0.7447 -0.3708
vn 0.6546 0.7447 -0.1302
vn 0.6546 0.7447 0.1302
vn 0.5550 0.7447 0.3708
vn 0.1302 0.7447 0.6546
vn -0.1302 0.7447 0.6546
vn -0.3708 0.7447 0.5550
vn -0.5550 0.7447 0.3708
vn -0.6546 0.7447 0.1302
vn -0.6546 0.7447 -0.1302
vn -0.5550 0.7447 -0.3708
vn 0.3708 0.7447 -0.5550
vn 0.3708 0.7447 0.5550
vn 0.0980 0.0000 -0.9952
vn 0.2903 0.0000 -0.9569
vn 0.4714 0.0000 -0.8819
vn 0.6344 0.0000 -0.7730
vn 0.7730 0.0000 -0.6344
vn 0.8819 0.0000 -0.4714
vn 0.9569 0.0000 -0.2903
vn 0.9952 0.0000 -0.0980
vn 0.9952 -0.0000 0.0980
vn 0.9569 -0.0000 0.2903
vn 0.8819 -0.0000 0.4714
vn 0.7730 -0.0000 0.6344
vn 0.6344 -0.0000 0.7730
vn 0.4714 -0.0000 0.8819
vn 0.2903 -0.0000 0.9569
vn 0.0980 -0.0000 0.9952
vn -0.0980 -0.0000 0.9952
vn -0.2903 -0.0000 0.9569
vn -0.4714 -0.0000 0.8819
vn -0.6344 -0.0000 0.7730
vn -0.7730 -0.0000 0.6344
vn -0.8819 -0.0000 0.4714
vn -0.9569 -0.0000 0.2903
vn -0.9952 -0.0000 0.0980
vn -0.9952 0.0000 -0.0980
vn -0.9569 0.0000 -0.2903
vn -0.8819 0.0000 -0.4714
vn -0.7730 0.0000 -0.6344
vn -0.6344 0.0000 -0.7730
vn -0.4714 0.0000 -0.8819
vn 0.0000 1.0000 -0.0000
vn -0.2903 0.0000 -0.9569
vn -0.0980 0.0000 -0.9952
vn 0.0000 -1.0000 0.0000
vn 0.0000 1.0000 0.0002
vn 0.0000 1.0000 -0.0001
vn 0.0000 1.0000 0.0001
vn 0.0000 1.0000 -0.0002
vn 0.0000 -1.0000 -0.0002
vn 0.0000 -1.0000 0.0002
usemtl None
s 1
f 1/1/1 2/2/1 3/3/1
f 1/1/2 3/3/2 4/4/2
f 1/1/3 5/5/3 2/2/3
f 1/1/4 6/6/4 7/7/4
f 1/8/5 8/9/5 6/10/5
f 1/11/6 9/12/6 8/13/6
f 1/11/7 10/14/7 9/12/7
f 1/11/8 11/15/8 12/16/8
f 1/11/9 13/17/9 11/15/9
f 1/11/10 14/18/10 13/17/10
f 1/11/11 15/19/11 14/18/11
f 1/20/12 16/21/12 15/22/12
f 1/1/13 17/23/13 16/24/13
f 1/1/14 4/4/14 17/23/14
f 1/1/15 7/7/15 5/5/15
f 1/11/16 12/16/16 10/14/16
f 19/25/17 21/26/17 18/27/17
f 20/28/18 23/29/18 21/30/18
f 22/31/19 25/32/19 23/29/19
f 24/33/20 27/34/20 25/32/20
f 26/35/21 29/36/21 27/34/21
f 28/37/22 31/38/22 29/36/22
f 30/39/23 33/40/23 31/38/23
f 32/41/24 35/42/24 33/40/24
f 34/43/25 37/44/25 35/42/25
f 36/45/26 39/46/26 37/44/26
f 38/47/27 41/48/27 39/46/27
f 40/49/28 43/50/28 41/48/28
f 42/51/29 45/52/29 43/53/29
f 44/54/30 47/55/30 45/52/30
f 46/56/31 49/57/31 47/55/31
f 48/58/32 51/59/32 49/57/32
f 50/60/33 53/61/33 51/59/33
f 52/62/34 55/63/34 53/61/34
f 54/64/35 57/65/35 55/66/35
f 56/67/36 59/68/36 57/65/36
f 58/69/37 61/70/37 59/68/37
f 60/71/38 63/72/38 61/70/38
f 62/73/39 65/74/39 63/72/39
f 64/75/40 67/76/40 65/74/40
f 66/77/41 69/78/41 67/76/41
f 68/79/42 71/80/42 69/78/42
f 70/81/43 73/82/43 71/80/43
f 72/83/44 75/84/44 73/82/44
f 74/85/45 77/86/45 75/84/45
f 76/87/46 79/88/46 77/89/46
f 38/90/47 30/91/47 22/92/47
f 78/93/48 81/94/48 79/88/48
f 80/95/49 18/27/49 81/94/49
f 49/96/50 65/97/50 81/98/50
f 19/25/17 20/99/17 21/26/17
f 20/28/18 22/31/18 23/29/18
f 22/31/19 24/33/19 25/32/19
f 24/33/20 26/35/20 27/34/20
f 26/35/21 28/37/21 29/36/21
f 28/37/22 30/39/22 31/38/22
f 30/39/23 32/41/23 33/40/23
f 32/41/24 34/43/24 35/42/24
f 34/43/25 36/45/25 37/44/25
f 36/45/26 38/47/26 39/46/26
f 38/47/27 40/49/27 41/48/27
f 40/49/28 42/100/28 43/50/28
f 42/51/29 44/54/29 45/52/29
f 44/54/30 46/56/30 47/55/30
f 46/56/31 48/58/31 49/57/31
f 48/58/32 50/60/32 51/59/32
f 50/60/33 52/62/33 53/61/33
f 52/62/34 54/101/34 55/63/34
f 54/64/35 56/67/35 57/65/35
f 56/67/36 58/69/36 59/68/36
f 58/69/37 60/71/37 61/70/37
f 60/71/38 62/73/38 63/72/38
f 62/73/39 64/75/39 65/74/39
f 64/75/40 66/77/40 67/76/40
f 66/77/41 68/79/41 69/78/41
f 68/79/42 70/81/42 71/80/42
f 70/81/43 72/83/43 73/82/43
f 72/83/44 74/85/44 75/84/44
f 74/85/45 76/102/45 77/86/45
f 76/87/46 78/93/46 79/88/46
f 22/92/47 20/103/51 19/104/52
f 19/104/52 80/105/53 22/92/47
f 80/105/53 78/106/47 22/92/47
f 78/106/47 76/107/47 70/108/47
f 76/107/47 74/109/53 70/108/47
f 74/109/53 72/110/47 70/108/47
f 70/108/47 68/111/47 62/112/47
f 68/111/47 66/113/47 62/112/47
f 66/113/47 64/114/47 62/112/47
f 62/112/47 60/115/47 54/101/47
f 60/115/47 58/116/52 54/101/47
f 58/116/52 56/117/51 54/101/47
f 54/101/47 52/62/47 46/56/47
f 52/62/47 50/60/53 46/56/47
f 50/60/53 48/58/54 46/56/47
f 46/56/47 44/54/47 38/90/47
f 44/54/47 42/51/52 38/90/47
f 42/51/52 40/118/47 38/90/47
f 38/90/47 36/119/47 34/120/47
f 34/120/47 32/121/47 38/90/47
f 32/121/47 30/91/47 38/90/47
f 30/91/47 28/122/47 22/92/47
f 28/122/47 26/123/53 22/92/47
f 26/123/53 24/124/54 22/92/47
f 22/92/47 78/106/47 54/101/47
f 78/106/47 70/108/47 54/101/47
f 70/108/47 62/112/47 54/101/47
f 54/101/47 46/56/47 22/92/47
f 46/56/47 38/90/47 22/92/47
f 78/93/48 80/95/48 81/94/48
f 80/95/49 19/25/49 18/27/49
f 81/98/50 18/125/50 21/126/50
f 21/126/50 23/127/55 25/128/50
f 25/128/50 27/129/50 29/130/50
f 29/130/50 31/131/50 33/132/50
f 33/132/50 35/133/50 37/134/50
f 37/134/50 39/135/50 41/136/50
f 41/136/50 43/137/50 45/138/50
f 45/138/50 47/139/56 49/96/50
f 49/96/50 51/140/50 53/141/50
f 53/141/50 55/142/50 49/96/50
f 55/142/50 57/143/50 49/96/50
f 57/143/50 59/144/50 61/145/50
f 61/145/50 63/146/50 65/97/50
f 65/97/50 67/147/50 69/148/50
f 69/148/50 71/149/50 65/97/50
f 71/149/50 73/150/50 65/97/50
f 73/150/50 75/151/50 77/152/50
f 77/152/50 79/153/55 81/98/50
f 81/98/50 21/126/50 25/128/50
f 25/128/50 29/130/50 81/98/50
f 29/130/50 33/132/50 81/98/50
f 33/132/50 37/134/50 41/136/50
f 41/136/50 45/138/50 49/96/50
f 57/143/50 61/145/50 49/96/50
f 61/145/50 65/97/50 49/96/50
f 73/150/50 77/152/50 65/97/50
f 77/152/50 81/98/50 65/97/50
f 33/132/50 41/136/50 81/98/50
f 41/136/50 49/96/50 81/98/50
