# Blender v2.81 (sub 16) OBJ File: ''
# www.blender.org
mtllib menu.mtl
o Cube.001
v 0.050000 1.500000 -1.000000
v -0.050000 1.500000 -1.000000
v -0.050000 1.500000 1.000000
v 0.050000 1.500000 1.000000
v 0.050000 -1.500000 1.000000
v -0.050000 -1.500000 1.000000
v -0.050000 -1.500000 -1.000000
v 0.050000 -1.500000 -1.000000
vt 0.978682 0.958333
vt 0.998062 0.541667
vt 0.998062 0.958333
vt 0.974806 0.687500
vt 0.955426 0.062500
vt 0.974806 0.062500
vt 0.503876 0.316406
vt 0.891473 0.941406
vt 0.503876 0.941406
vt 0.978682 0.458333
vt 0.998062 0.041667
vt 0.998062 0.458333
vt 0.426357 0.941406
vt 0.038760 0.316406
vt 0.426356 0.316406
vt 0.932170 0.062500
vt 0.951550 0.687500
vt 0.932170 0.687500
vt 0.978682 0.541667
vt 0.955426 0.687500
vt 0.891473 0.316406
vt 0.978682 0.041667
vt 0.038760 0.941406
vt 0.951550 0.062500
vn 0.0000 1.0000 0.0000
vn 0.0000 -0.0000 1.0000
vn -1.0000 -0.0000 0.0000
vn 0.0000 -1.0000 -0.0000
vn 1.0000 0.0000 0.0000
vn 0.0000 0.0000 -1.0000
usemtl Material.001
s 1
f 2/1/1 4/2/1 1/3/1
f 4/4/2 6/5/2 5/6/2
f 3/7/3 7/8/3 6/9/3
f 8/10/4 6/11/4 7/12/4
f 1/13/5 5/14/5 8/15/5
f 2/16/6 8/17/6 7/18/6
f 2/1/1 3/19/1 4/2/1
f 4/4/2 3/20/2 6/5/2
f 3/7/3 2/21/3 7/8/3
f 8/10/4 5/22/4 6/11/4
f 1/13/5 4/23/5 5/14/5
f 2/16/6 1/24/6 8/17/6
